<svg xmlns="http://www.w3.org/2000/svg"  viewBox="0 0 512 512" width="128px" height="128px"><g data-name="&lt;编组&gt;"><path fill="#ffbc5a" d="M455.22,289.7,496,347s-24-7-32,20c0,0-22-11-51,11l-69-96,15-21s-2,18,19,20a23.86,23.86,0,0,0,20-10c9.3-12.79,17-2,25,9,7.65,10.51,19.67,21.67,31.33,10.33Z"/><path fill="#f5f6f7" d="M455.22,289.7l-.89.63c-11.66,11.34-23.68.18-31.33-10.33-8-11-15.7-21.79-25-9a23.86,23.86,0,0,1-20,10c-21-2-19-20-19-20l38-53.12Z"/></g><g data-name="&lt;编组&gt;"><path fill="#f0f3f7" d="M496,347V460l-65.28-91.71A33.37,33.37,0,0,1,464,367C472,340,496,347,496,347Z"/><path fill="#f0f3f7" d="M62,456.91s0,.06,0,.09,43-25,82,6c0,0-4-56,42-64,55.08-9.58,66,38,66,38s51-16,68,26c0,0,18-30,48-16,0,0,15-32,59-19,23.84,7,32.71,26.12,35.83,42.13C476.66,453.27,496,460,496,460v35H16V425.77S52.94,418,62,456.91Z"/></g><path fill="#f0f3f7" d="M231.78,110.43a32.11,32.11,0,0,1-31.92,32.07c-.13,0-.26-.23-.39-.23H68.67c-.39,0-.78.22-1.17.21a35.72,35.72,0,0,1-4.7-70.95,26.55,26.55,0,0,1-.75-6.29,26.85,26.85,0,0,1,47.63-17,50.23,50.23,0,0,1,95.59,30.41A32.31,32.31,0,0,1,231.78,110.43Z"/><path fill="#fff" d="M98,49.23A10.81,10.81,0,1,1,87.19,38.42,10.81,10.81,0,0,1,98,49.23Z" opacity=".7"/><path fill="#fff" d="M79.65,90.6A17.86,17.86,0,1,1,61.79,72.73,17.86,17.86,0,0,1,79.65,90.6Z" opacity=".7"/><path fill="#fff" d="M162.36,41.76a20.69,20.69,0,1,1-20.69-20.69A20.69,20.69,0,0,1,162.36,41.76Z" opacity=".7"/><path fill="#3f456b" d="M74.17,128.28c-43.67,0-38.57-39.11-38.57-39.11-10.44,55.65,34.93,53.1,34.93,53.1H199.86c14.2,0,28.4-8.51,31.74-26.82s-15.63-34-15.63-34c7.72,4.65,26,46.64-22,46.64H87.08Z" opacity=".1"/><rect width="63" height="48" x="257" y="80" fill="#e95a6b"/><g data-name="&lt;编组&gt;"><path fill="#ffbc5a" d="M384.54,338.32,397,320.92,496,460s-19.34-6.73-33.17,10.13c-3.12-16-12-35.09-35.83-42.13-44-13-59,19-59,19-30-14-48,16-48,16-17-42-68-26-68-26s-10.92-47.58-66-38c-46,8-42,64-42,64-39-31-82-6-82-6-9-39-46-31.23-46-31.23L105.4,303.1,129,336l.21.15L257,160,384,337.93Z"/><polyline fill="none" points="109 364 129.21 336.15 257 160 384 337.93"/><path fill="none" d="M364,367l20.54-28.68L397,320.92,496,460s-19.34-6.73-33.17,10.13"/><path fill="none" d="M129,336l-23.6-32.9L16,425.77S53,418,62,457c0,0,43-25,82,6,0,0-4-56,42-64,55.08-9.58,66,38,66,38s51-16,68,26c0,0,18-30,48-16,0,0,15-32,59-19,23.84,7,32.71,26.13,35.83,42.13a87.8,87.8,0,0,1,1.55,14.38"/></g><path fill="#f5f6f7" d="M397,322l-27,37.75S396,376,424,359Z"/><path fill="#f5f6f7" d="M255,160,360.06,307.19h0c-25,18.2-40-7.3-40-7.3A68,68,0,1,0,188,332.41C179,346.83,162,343,162,343c-25-3-18.5-29.31-18.5-29.31Z" data-name="&lt;编组&gt;"/><path fill="#3f456b" d="M397,208l71,149s7-15,28-10Z" opacity=".15"/><path fill="#3f456b" d="M397,321l69,145s9-11,30-6Z" opacity=".15"/><path fill="#3f456b" d="M257,160,359,374s12-17,25-35.69Z" opacity=".15"/><path fill="#fff" d="M257,160,171,404.05s31-19.38,64,5.28Z" opacity=".3"/><path fill="#fff" d="M362,307.2c7.49,8.77,13.36,19.24,22,28.8.76.76,1.26,1,1.62.95L397,208Z" opacity=".3"/><path fill="#fff" d="M353,443c5,1,9,0,15,4,7-14,18.64-17.94,19-18l10-108Z" opacity=".3"/><path fill="#fff" d="M56,442q1.5,3,6,15c16-10,29.64-8.94,30-9l13-143Z" opacity=".3"/><path fill="#3f456b" d="M277,485a5,5,0,0,1-4.52-2.85c-1.52-3.22-4.52-7.47-12.79-7a31.67,31.67,0,0,0-10.2,2.44,5.05,5.05,0,0,1-4,.09,5,5,0,0,1-2.78-2.84c-.28-.7-7.26-17.79-26.74-17.79-20,0-30.39,21-30.49,21.19a5,5,0,1,1-9-4.38C177,472.72,189.83,447,216,447c19.59,0,29.74,12.73,33.84,19.74,9.83-3,24.8-3.39,31.69,11.11A5,5,0,0,1,277,485Z" opacity=".3"/><path fill="#3f456b" d="M378,490a5.07,5.07,0,0,1-1.52-.24,5,5,0,0,1-3.24-6.28c.26-.83,6.67-20.36,24.59-22.24,22.39-2.36,29.81,13.18,30.12,13.84a5,5,0,0,1-9.09,4.18c-.17-.34-4.95-9.66-20-8.08-4.69.5-8.8,3.16-12.22,7.93a30.93,30.93,0,0,0-3.9,7.41A5,5,0,0,1,378,490Z" opacity=".3"/><path fill="#3f456b" d="M464.38,419.33a4.76,4.76,0,0,1-.84-.07,5,5,0,0,1-4.09-5.76c1.51-8.88,10.29-25.42,32.76-24.5a5,5,0,0,1-.42,10c-19.42-.82-22.37,15.48-22.48,16.17A5,5,0,0,1,464.38,419.33Z" opacity=".3"/><circle cx="256" cy="316" r="68" fill="#fff" opacity=".3"/><path fill="#ffbc5a" d="M368.5,111.77s42.75-8.09,48-51.77c0,0,7.5,45.3,48,51.77,0,0-41.5,8.63-48,51.23C416.5,163,407,120.4,368.5,111.77Z"/><path fill="#fff" d="M368,112s29,3,41-8,7-44,7-44-.67,19.67-15.83,33.83C383,110,368,112,368,112Z" opacity=".5"/><path fill="#ffbc5a" d="M49.5,223.77s42.75-8.09,48-51.77c0,0,7.5,45.3,48,51.77,0,0-41.5,8.63-48,51.23C97.5,275,88,232.4,49.5,223.77Z"/><path fill="#fff" d="M49,224s29,3,41-8,7-44,7-44-.67,19.67-15.83,33.83C64,222,49,224,49,224Z" opacity=".5"/><g><path fill="#3f456b" d="M192.31,147.59h-125A40.76,40.76,0,0,1,57.15,67.72c-.07-.82-.1-1.64-.1-2.47a31.87,31.87,0,0,1,51-25.46A55.23,55.23,0,0,1,211.87,66.05a56.71,56.71,0,0,1-.72,8.93,37.23,37.23,0,0,1-11.23,72.61Zm-124.44-10h132a27.23,27.23,0,0,0,4.52-54,5,5,0,0,1-3.95-6.17A45.23,45.23,0,0,0,114.36,50a5,5,0,0,1-8.54,1.4A21.86,21.86,0,0,0,67.05,65.25a22.08,22.08,0,0,0,.61,5.13,5,5,0,0,1-4,6.11,30.75,30.75,0,0,0,4,61.08Z"/><path fill="#3f456b" d="M257,165a5,5,0,0,1-5-5V80a5,5,0,0,1,10,0v80A5,5,0,0,1,257,165Z"/><path fill="#3f456b" d="M320,133H257a5,5,0,0,1,0-10h58V85H257a5,5,0,0,1,0-10h63a5,5,0,0,1,5,5v48A5,5,0,0,1,320,133Z"/><path fill="#3f456b" d="M109,369a5,5,0,0,1-4-7.94l148-204A5,5,0,0,1,257,155h0a5,5,0,0,1,4.05,2.1L388.07,335a5,5,0,0,1-8.14,5.81L257,168.56,113.05,366.94A5,5,0,0,1,109,369Z"/><path fill="#3f456b" d="M462.83,475.13A5,5,0,0,1,459,467a34.7,34.7,0,0,1,26.4-13.29L397,329.53l-33.92,47.38a5,5,0,1,1-8.14-5.82l38-53.08a5,5,0,0,1,4.07-2.09h0a5,5,0,0,1,4.07,2.1l99,139.08a5,5,0,0,1-5.71,7.62c-.64-.21-16.31-5.27-27.66,8.58A5,5,0,0,1,462.83,475.13Z"/><path fill="#3f456b" d="M430.73,373.29a5,5,0,0,1-2.59-9.28,38.37,38.37,0,0,1,33-3.73c5.74-13.3,15.84-18.09,24.67-19L397,216.53l-48.93,68.38a5,5,0,1,1-8.14-5.82l53-74.08a5,5,0,0,1,4.07-2.09h0a5,5,0,0,1,4.07,2.1l99,139.08a5,5,0,0,1-5.47,7.7c-2-.54-19.47-4.77-25.81,16.62a5,5,0,0,1-7.38,2.86c-.51-.3-13.32-7.64-28.1,1.29A5,5,0,0,1,430.73,373.29Z"/><path fill="#3f456b" d="M462.82,475.13a5,5,0,0,1-4.9-4c-3.94-20.24-14.83-33.12-32.34-38.3-39.12-11.55-52.51,15.21-53.06,16.35a5,5,0,0,1-6.63,2.39c-25.47-11.88-41,13-41.61,14.05a5,5,0,0,1-8.91-.7c-15.05-37.17-60-23.7-61.88-23.11a5,5,0,0,1-6.36-3.65c-.41-1.74-10.69-42.81-60.27-34.19-17,2.95-28.53,13.49-34.26,31.32a82.37,82.37,0,0,0-3.61,27.4,5,5,0,0,1-8.1,4.26c-14.95-11.87-32.25-16.47-51.41-13.64a77.94,77.94,0,0,0-25,8.06,5,5,0,0,1-7.37-3.21c-7.81-33.83-38.79-27.73-40.1-27.45A5,5,0,0,1,12,422.83l89.4-122.67a5,5,0,0,1,4-2.06h0a5,5,0,0,1,4,2.09l23.6,32.9a5,5,0,1,1-8.12,5.82l-19.57-27.27L26.19,420.29c12.18.65,31,5.75,39,29.6a91.35,91.35,0,0,1,22.43-6.46c18.55-2.82,36.17.65,51.5,10.05a90.71,90.71,0,0,1,3.86-21c6.82-21.52,21.4-34.8,42.16-38.42,30.71-5.34,48.62,6.3,58.23,17a62.84,62.84,0,0,1,12,19.93,85.55,85.55,0,0,1,24.7-1.73c18.42,1.55,32.39,9.87,40.85,24.23,8.95-9.95,25-19.93,45-12.75a47.78,47.78,0,0,1,12.23-12.24c16.92-11.66,36.67-9.32,50.26-5.3,26.62,7.86,36.07,29.33,39.32,46a5,5,0,0,1-3.95,5.87A5.39,5.39,0,0,1,462.82,475.13Z"/><path fill="#3f456b" d="M256.7,352.66c-16.34,0-27.11-8.24-27.49-21.11a5,5,0,0,1,4.85-5.14h.15a5,5,0,0,1,5,4.85c.31,10.51,12.71,11.52,18,11.41s10.24-2.09,12.89-5.15a8.65,8.65,0,0,0,2-7.18c-.48-3.68-2.7-6.43-11.95-7.94l-2.73-.42c-8.13-1.23-17.33-2.61-23.63-11.52a15.73,15.73,0,0,1-2.68-12.13,22.18,22.18,0,0,1,9.51-13.88c7-4.76,17.73-5.48,26.69-1.81a25.81,25.81,0,0,1,14.31,14.27,5,5,0,1,1-9.32,3.64,16,16,0,0,0-8.78-8.66c-5.9-2.41-13-2.07-17.29.83a12.42,12.42,0,0,0-5.28,7.4,5.74,5.74,0,0,0,1,4.57c3.65,5.16,8.82,6.17,16.95,7.4l2.84.44c4.58.75,18.5,3,20.26,16.51a18.61,18.61,0,0,1-4.4,15c-4.57,5.28-12.17,8.5-20.32,8.61Z"/><path fill="#3f456b" d="M256.69,289.8a5,5,0,0,1-5-5V270.67a5,5,0,0,1,10,0V284.8A5,5,0,0,1,256.69,289.8Z"/><path fill="#3f456b" d="M256.69,367.53a5,5,0,0,1-5-5V347.61a5,5,0,0,1,10,0v14.92A5,5,0,0,1,256.69,367.53Z"/><path fill="#3f456b" d="M36,489a5,5,0,0,1-4.51-7.15c10.71-22.5,31.83-31.26,32.73-31.62A5,5,0,0,1,68,459.49c-.21.09-18.48,7.79-27.47,26.66A5,5,0,0,1,36,489Z"/><path fill="#3f456b" d="M256,389a73,73,0,1,1,73-73A73.09,73.09,0,0,1,256,389Zm0-136a63,63,0,1,0,63,63A63.07,63.07,0,0,0,256,253Z"/><path fill="#3f456b" d="M416.5,168a5,5,0,0,1-4.88-3.91c-.09-.39-9.36-39.63-44.21-47.44a5,5,0,0,1,.15-9.79c1.6-.31,39.24-8.06,44-47.46a5,5,0,0,1,4.85-4.4h.11a5,5,0,0,1,4.93,4.18,74.68,74.68,0,0,0,8.38,22.06c8.41,14.56,20.35,23.18,35.48,25.59a5,5,0,0,1,.23,9.84c-1.55.32-38.2,8.55-44.08,47.08a5,5,0,0,1-4.77,4.25Zm-32.9-56.18c17.1,8.46,26.94,23.37,32.27,34.74a64.52,64.52,0,0,1,24.29-29.31,75.28,75.28,0,0,1,8.66-5C437.44,107.08,428,98.17,421,85.94A83.53,83.53,0,0,1,417,78a62.36,62.36,0,0,1-23.72,28.41A73.94,73.94,0,0,1,383.6,111.82Z"/><path fill="#3f456b" d="M97.5,280a5,5,0,0,1-4.88-3.91c-.09-.39-9.36-39.63-44.21-47.44a5,5,0,0,1,.15-9.79c1.6-.31,39.24-8.06,44-47.46a5,5,0,0,1,9.89-.22,74.68,74.68,0,0,0,8.38,22.06c8.41,14.56,20.35,23.18,35.48,25.59a5,5,0,0,1,.23,9.84c-1.55.32-38.2,8.55-44.08,47.08A5,5,0,0,1,97.67,280ZM64.6,223.82c17.1,8.46,26.94,23.37,32.27,34.74a64.52,64.52,0,0,1,24.29-29.31,75.28,75.28,0,0,1,8.66-5C118.44,219.08,109,210.17,102,197.94A83.53,83.53,0,0,1,98,190a62.36,62.36,0,0,1-23.72,28.41A73.94,73.94,0,0,1,64.6,223.82Z"/><path fill="#3f456b" d="M55,444a4.94,4.94,0,0,1-3.14-1.11,5,5,0,0,1-.75-7l21-26a5,5,0,0,1,7.78,6.28l-21,26A5,5,0,0,1,55,444Z"/></g></svg>