<?xml version="1.0" encoding="UTF-8"?>
<svg xmlns="http://www.w3.org/2000/svg" xmlns:xlink="http://www.w3.org/1999/xlink" viewBox="0 0 100 100" width="100px" height="100px">
<g id="surface119384932">
<path style=" stroke:none;fill-rule:nonzero;fill:rgb(14.509805%,26.666668%,60.000002%);fill-opacity:1;" d="M 50 2 C 32.359375 2 18 16.359375 18 34 C 18 62.226562 47.257812 95.890625 48.5 97.3125 C 48.882812 97.75 49.421875 98 50 98 C 50.617188 97.960938 51.117188 97.75 51.5 97.3125 C 52.742188 95.867188 82 61.625 82 34 C 82 16.359375 67.640625 2 50 2 Z M 50 24 C 56.625 24 62 29.375 62 36 C 62 42.625 56.625 48 50 48 C 43.375 48 38 42.625 38 36 C 38 29.375 43.375 24 50 24 Z M 50 24 "/>
</g>
</svg>
