<svg xmlns="http://www.w3.org/2000/svg"  viewBox="0 0 64 64" width="128px" height="128px"><g data-name="Color copy"><rect width="38" height="58" x="3" y="3" fill="#93999a" rx="4"/><rect width="30" height="46" x="7" y="11" fill="#e9f1f2" rx="1"/><path fill="#d0d8da" d="M36,11H8a1,1,0,0,0-1,1V56a1,1,0,0,0,1,1H36a1,1,0,0,0,1-1V12A1,1,0,0,0,36,11ZM34,52H17a7,7,0,0,1-7-7V14H32a2.006,2.006,0,0,1,2,2Z"/><path fill="#656b76" d="M40.46,59A3.98,3.98,0,0,1,37,61H7a4,4,0,0,1-4-4V7A3.98,3.98,0,0,1,5,3.54V55a4,4,0,0,0,4,4Z"/><circle cx="7" cy="7" r="1" fill="#2d72bc"/><circle cx="11" cy="7" r="1" fill="#2d72bc"/><path fill="#84d2f4" d="M13,17H31a4,4,0,0,1,4,4V46a0,0,0,0,1,0,0H13a0,0,0,0,1,0,0V17A0,0,0,0,1,13,17Z"/><path fill="#84d2f4" d="M39,17H57a0,0,0,0,1,0,0V46a0,0,0,0,1,0,0H35a0,0,0,0,1,0,0V21A4,4,0,0,1,39,17Z"/><rect width="9" height="4" x="13" y="46" fill="#2d72bc"/><path fill="#57b7eb" d="M35,35V46H13V17h7v8A10,10,0,0,0,30,35Z"/><path fill="#57b7eb" d="M57,35V46H35V21a4,4,0,0,1,4-4h3v8A10,10,0,0,0,52,35Z"/><circle cx="54" cy="12" r="7" fill="#f8664f"/><path fill="#cc5144" d="M60.95,12.78a7,7,0,1,1-10.9-6.56A5.109,5.109,0,0,0,50,7a7,7,0,0,0,10.95,5.78Z"/><polygon fill="#57b7eb" points="52 15 52 9 58 12 52 15"/><path fill="#4891d3" d="M54.75,13.63,52,15V11.89A6.877,6.877,0,0,0,54.75,13.63Z"/><path fill="#f8664f" d="M30,32H18a1,1,0,0,1,0-2H30a1,1,0,0,1,0,2Z"/><path fill="#f8664f" d="M30,28H18a1,1,0,0,1,0-2H30a1,1,0,0,1,0,2Z"/><path fill="#f8664f" d="M30,24H21a1,1,0,0,1,0-2h9a1,1,0,0,1,0,2Z"/><path fill="#f8664f" d="M30,36H18a1,1,0,0,1,0-2H30a1,1,0,0,1,0,2Z"/><path fill="#cc5144" d="M22,40H18a1,1,0,0,1,0-2h4a1,1,0,0,1,0,2Z"/><path fill="#f8664f" d="M52,32H40a1,1,0,0,1,0-2H52a1,1,0,0,1,0,2Z"/><path fill="#f8664f" d="M52,28H40a1,1,0,0,1,0-2H52a1,1,0,0,1,0,2Z"/><path fill="#f8664f" d="M52,24H43a1,1,0,0,1,0-2h9a1,1,0,0,1,0,2Z"/><path fill="#cc5144" d="M22.86,32H18a1,1,0,0,1,0-2h3.34A10.247,10.247,0,0,0,22.86,32Z"/><path fill="#cc5144" d="M20.46,28H18a1,1,0,0,1,0-2h2.05A10.137,10.137,0,0,0,20.46,28Z"/><path fill="#cc5144" d="M31,35a1,1,0,0,1-1,1H18a1,1,0,0,1,0-2h7.65A9.894,9.894,0,0,0,30,35Z"/><path fill="#cc5144" d="M44.86,32H40a1,1,0,0,1,0-2h3.34A10.247,10.247,0,0,0,44.86,32Z"/><path fill="#cc5144" d="M42.46,28H40a1,1,0,0,1,0-2h2.05A10.137,10.137,0,0,0,42.46,28Z"/><rect width="39" height="26" x="22" y="35" fill="#f9e109"/><path fill="#fcbc04" d="M61,55v6H22V35h8v6A14,14,0,0,0,44,55Z"/><rect width="39" height="6" x="22" y="40" fill="#93999a"/><path fill="#f8664f" d="M55,57H51a2,2,0,0,1-2-2h0a2,2,0,0,1,2-2h4a2,2,0,0,1,2,2h0A2,2,0,0,1,55,57Z"/><path fill="#656b76" d="M30.93,46H22V40h8v1A13.838,13.838,0,0,0,30.93,46Z"/><path fill="#cc5144" d="M57,55a2.015,2.015,0,0,1-2,2H51a2.006,2.006,0,0,1-2-2Z"/><path fill="#57b7eb" d="M42,54H27a1,1,0,0,1,0-2H42a1,1,0,0,1,0,2Z"/><path fill="#4891d3" d="M39,58H27a1,1,0,0,1,0-2H39a1,1,0,0,1,0,2Z"/><path fill="#4891d3" d="M38.81,54H27a1,1,0,0,1,0-2h8.35A13.7,13.7,0,0,0,38.81,54Z"/><path fill="#4891d3" d="M38.81,54H27a1,1,0,0,1,0-2h8.35A13.7,13.7,0,0,0,38.81,54Z"/></g></svg>